<svg width="109" height="42" viewBox="0 0 109 42" fill="none" xmlns="http://www.w3.org/2000/svg">
<path fill-rule="evenodd" clip-rule="evenodd" d="M26 1.5H24.5C22.463 1.5 20.798 2.44527 19.5078 3.79935C18.2383 5.13166 17.2786 6.90672 16.5593 8.76645C16.3569 9.2899 16.1706 9.82759 16 10.3737C15.8294 9.82759 15.6431 9.2899 15.4407 8.76645C14.7214 6.90672 13.7617 5.13166 12.4922 3.79935C11.202 2.44527 9.53695 1.5 7.5 1.5H6H4.5V3V5.56094C4.16688 5.52084 3.83324 5.5 3.5 5.5H2H0.5V7V29.5V31V32.5H2H3.5H4.5H6H7.5V31V29.5V9.79312C8.63397 10.4722 9.76199 11.3932 10.7946 12.4946C13.0782 14.9306 14.5 17.83 14.5 20V21.5H17.5V20C17.5 17.8076 18.86 14.9042 21.0885 12.485C22.1384 11.3453 23.3053 10.3948 24.5 9.7082V29.5V31V32.5H26H27.5H28.5H30H31.5V31V29.5V7V5.5H30H28.5C28.1655 5.5 27.8319 5.51911 27.5 5.55595V3V1.5H26ZM28.5 29.5V8.5C28.1719 8.5 27.8379 8.52858 27.5 8.58398V29.5H28.5ZM4.5 29.5H3.5V8.5C3.82386 8.5 4.15815 8.53217 4.5 8.59453V29.5ZM24.5 6.36167V4.5C23.4814 4.5 22.5562 4.94891 21.6797 5.8688C20.7825 6.81047 19.9992 8.18918 19.3573 9.84863C19.3351 9.90607 19.3131 9.96373 19.2913 10.0216C20.7779 8.50403 22.5674 7.17851 24.5 6.36167ZM7.5 6.41626V4.5C8.5186 4.5 9.4438 4.94891 10.3203 5.8688C11.2175 6.81047 12.0008 8.18918 12.6427 9.84863C12.6925 9.97753 12.7413 10.1076 12.789 10.2386C11.2781 8.67119 9.44854 7.2793 7.5 6.41626Z" fill="#86B98C"/>
<path d="M47.6934 29.748V19.957C47.6934 19.207 47.541 18.5566 47.2363 18.0059C46.9434 17.4434 46.498 17.0098 45.9004 16.7051C45.3027 16.4004 44.5645 16.248 43.6855 16.248C42.8652 16.248 42.1445 16.3887 41.5234 16.6699C40.9141 16.9512 40.4336 17.3203 40.082 17.7773C39.7422 18.2344 39.5723 18.7266 39.5723 19.2539H36.3203C36.3203 18.5742 36.4961 17.9004 36.8477 17.2324C37.1992 16.5645 37.7031 15.9609 38.3594 15.4219C39.0273 14.8711 39.8242 14.4375 40.75 14.1211C41.6875 13.793 42.7305 13.6289 43.8789 13.6289C45.2617 13.6289 46.4805 13.8633 47.5352 14.332C48.6016 14.8008 49.4336 15.5098 50.0312 16.459C50.6406 17.3965 50.9453 18.5742 50.9453 19.9922V28.8516C50.9453 29.4844 50.998 30.1582 51.1035 30.873C51.2207 31.5879 51.3906 32.2031 51.6133 32.7188V33H48.2207C48.0566 32.625 47.9277 32.127 47.834 31.5059C47.7402 30.873 47.6934 30.2871 47.6934 29.748ZM48.2559 21.4688L48.291 23.7539H45.0039C44.0781 23.7539 43.252 23.8301 42.5254 23.9824C41.7988 24.123 41.1895 24.3398 40.6973 24.6328C40.2051 24.9258 39.8301 25.2949 39.5723 25.7402C39.3145 26.1738 39.1855 26.6836 39.1855 27.2695C39.1855 27.8672 39.3203 28.4121 39.5898 28.9043C39.8594 29.3965 40.2637 29.7891 40.8027 30.082C41.3535 30.3633 42.0273 30.5039 42.8242 30.5039C43.8203 30.5039 44.6992 30.293 45.4609 29.8711C46.2227 29.4492 46.8262 28.9336 47.2715 28.3242C47.7285 27.7148 47.9746 27.123 48.0098 26.5488L49.3984 28.1133C49.3164 28.6055 49.0938 29.1504 48.7305 29.748C48.3672 30.3457 47.8809 30.9199 47.2715 31.4707C46.6738 32.0098 45.959 32.4609 45.127 32.8242C44.3066 33.1758 43.3809 33.3516 42.3496 33.3516C41.0605 33.3516 39.9297 33.0996 38.957 32.5957C37.9961 32.0918 37.2461 31.418 36.707 30.5742C36.1797 29.7188 35.916 28.7637 35.916 27.709C35.916 26.6895 36.1152 25.793 36.5137 25.0195C36.9121 24.2344 37.4863 23.584 38.2363 23.0684C38.9863 22.541 39.8887 22.1426 40.9434 21.873C41.998 21.6035 43.1758 21.4688 44.4766 21.4688H48.2559ZM61.5625 30.0645L66.7656 13.9805H70.0879L63.25 33H61.0703L61.5625 30.0645ZM57.2207 13.9805L62.582 30.1523L62.9512 33H60.7715L53.8809 13.9805H57.2207ZM76.4863 6V33H73.2168V6H76.4863ZM88.1055 13.9805L79.8086 22.8574L75.168 27.6738L74.9043 24.2109L78.2266 20.2383L84.1328 13.9805H88.1055ZM85.1348 33L78.3496 23.9297L80.0371 21.0293L88.9668 33H85.1348ZM102.678 29.748V19.957C102.678 19.207 102.525 18.5566 102.221 18.0059C101.928 17.4434 101.482 17.0098 100.885 16.7051C100.287 16.4004 99.5488 16.248 98.6699 16.248C97.8496 16.248 97.1289 16.3887 96.5078 16.6699C95.8984 16.9512 95.418 17.3203 95.0664 17.7773C94.7266 18.2344 94.5566 18.7266 94.5566 19.2539H91.3047C91.3047 18.5742 91.4805 17.9004 91.832 17.2324C92.1836 16.5645 92.6875 15.9609 93.3438 15.4219C94.0117 14.8711 94.8086 14.4375 95.7344 14.1211C96.6719 13.793 97.7148 13.6289 98.8633 13.6289C100.246 13.6289 101.465 13.8633 102.52 14.332C103.586 14.8008 104.418 15.5098 105.016 16.459C105.625 17.3965 105.93 18.5742 105.93 19.9922V28.8516C105.93 29.4844 105.982 30.1582 106.088 30.873C106.205 31.5879 106.375 32.2031 106.598 32.7188V33H103.205C103.041 32.625 102.912 32.127 102.818 31.5059C102.725 30.873 102.678 30.2871 102.678 29.748ZM103.24 21.4688L103.275 23.7539H99.9883C99.0625 23.7539 98.2363 23.8301 97.5098 23.9824C96.7832 24.123 96.1738 24.3398 95.6816 24.6328C95.1895 24.9258 94.8145 25.2949 94.5566 25.7402C94.2988 26.1738 94.1699 26.6836 94.1699 27.2695C94.1699 27.8672 94.3047 28.4121 94.5742 28.9043C94.8438 29.3965 95.248 29.7891 95.7871 30.082C96.3379 30.3633 97.0117 30.5039 97.8086 30.5039C98.8047 30.5039 99.6836 30.293 100.445 29.8711C101.207 29.4492 101.811 28.9336 102.256 28.3242C102.713 27.7148 102.959 27.123 102.994 26.5488L104.383 28.1133C104.301 28.6055 104.078 29.1504 103.715 29.748C103.352 30.3457 102.865 30.9199 102.256 31.4707C101.658 32.0098 100.943 32.4609 100.111 32.8242C99.291 33.1758 98.3652 33.3516 97.334 33.3516C96.0449 33.3516 94.9141 33.0996 93.9414 32.5957C92.9805 32.0918 92.2305 31.418 91.6914 30.5742C91.1641 29.7188 90.9004 28.7637 90.9004 27.709C90.9004 26.6895 91.0996 25.793 91.498 25.0195C91.8965 24.2344 92.4707 23.584 93.2207 23.0684C93.9707 22.541 94.873 22.1426 95.9277 21.873C96.9824 21.6035 98.1602 21.4688 99.4609 21.4688H103.24Z" fill="#86B98C"/>
</svg>
